# xmcd
#
# Track frame offsets: 
#        150
#        13704
#        26554
#        41086
#        57113
#        73355
#        87041
#        112485
#        123186
#        135499
#        158100
#        168100
#
# Disc length: 2413 seconds
#
# Revision: 0
# Processed by: cddbd v1.5.2PL0 Copyright (c) Steve Scherf et al.
# Submitted via: ExactAudioCopy v1.0b1
#
DISCID=9e096b0c
DTITLE=Christine Hoedl - Pure
DYEAR=2011
DGENRE=Blues
TTITLE0=It's Got To Be Today
TTITLE1=One Of These Days
TTITLE2=The Way It Is
TTITLE3=I'm Gonna Cry
TTITLE4=I'm Gonna Hate Me
TTITLE5=Sun Rises Up
TTITLE6=You
TTITLE7=Without A Mind
TTITLE8=What Is It
TTITLE9=I'm Welcome To Stay
TTITLE10=Good Day
TTITLE11=The Key To Be Free
EXTD=
EXTT0=
EXTT1=
EXTT2=
EXTT3=
EXTT4=
EXTT5=
EXTT6=
EXTT7=
EXTT8=
EXTT9=
EXTT10=
EXTT11=
PLAYORDER=
